<svg width="108" height="76" viewBox="0 0 108 76" fill="none" xmlns="http://www.w3.org/2000/svg">
<g clip-path="url(#clip0_15_39)">
<path fill-rule="evenodd" clip-rule="evenodd" d="M16 0C7.4993 0 0.546938 6.62927 0.030742 15H0V16V62V66C0 71.5229 4.47715 76 10 76H88C99.0457 76 108 67.0457 108 56V25C108 19.4772 103.523 15 98 15H79V10C79 4.47715 74.5229 0 69 0H16Z" fill="#DE6F00"/>
<path d="M0.030742 15V15.5H0.500858L0.529794 15.0308L0.030742 15ZM0 15V14.5H-0.5V15H0ZM79 15H78.5V15.5H79V15ZM0.529794 15.0308C1.02983 6.9221 7.76513 0.5 16 0.5V-0.5C7.23346 -0.5 0.0640462 6.33644 -0.46831 14.9692L0.529794 15.0308ZM0 15.5H0.030742V14.5H0V15.5ZM0.5 16V15H-0.5V16H0.5ZM0.5 62V16H-0.5V62H0.5ZM0.5 66V62H-0.5V66H0.5ZM10 75.5C4.7533 75.5 0.5 71.2467 0.5 66H-0.5C-0.5 71.799 4.20101 76.5 10 76.5V75.5ZM88 75.5H10V76.5H88V75.5ZM107.5 56C107.5 66.7695 98.7695 75.5 88 75.5V76.5C99.3218 76.5 108.5 67.3218 108.5 56H107.5ZM107.5 25V56H108.5V25H107.5ZM98 15.5C103.247 15.5 107.5 19.7533 107.5 25H108.5C108.5 19.201 103.799 14.5 98 14.5V15.5ZM79 15.5H98V14.5H79V15.5ZM78.5 10V15H79.5V10H78.5ZM69 0.5C74.2467 0.5 78.5 4.75329 78.5 10H79.5C79.5 4.20101 74.799 -0.5 69 -0.5V0.5ZM16 0.5H69V-0.5H16V0.5Z" fill="black"/>
<path d="M79 15L78.2999 15.0014C69.7655 15.5114 48.1501 32.9253 23.7231 31.9644C8.64756 31.3713 1.50503 25.0454 0.5 15.1611L78.2999 15.0014C78.5441 14.9869 78.7775 14.9861 79 15Z" fill="#FF0004" stroke="black"/>
</g>
<defs>
<clipPath id="clip0_15_39">
<rect width="108" height="76" fill="white"/>
</clipPath>
</defs>
</svg>
