<svg width="119" height="116" viewBox="0 0 119 116" fill="none" xmlns="http://www.w3.org/2000/svg">
<g clip-path="url(#clip0_67_2)">
<path fill-rule="evenodd" clip-rule="evenodd" d="M50 0H32C14.3269 0 0 14.3269 0 32V84C0 101.673 14.3269 116 32 116H87C104.673 116 119 101.673 119 84V64H100V81C100 89.8366 92.8366 97 84 97H37C28.1634 97 21 89.8366 21 81V35C21 26.1634 28.1634 19 37 19H50V0Z" fill="black"/>
<path d="M33.2846 80.0912C31.7818 80.3871 30.5178 78.953 31 77.4992L39.1435 52.9477C39.6295 51.4826 41.5215 51.0969 42.5422 52.2549L59.7784 71.8101C60.7991 72.9681 60.1789 74.7968 58.6644 75.0949L33.2846 80.0912Z" fill="black"/>
<path fill-rule="evenodd" clip-rule="evenodd" d="M38.7799 55.1228L56.4608 75.1826L102.48 34.6205L84.7993 14.5607L38.7799 55.1228ZM87.1593 12.4806L104.84 32.5404L117.5 21.3822C118.328 20.6518 118.408 19.388 117.678 18.5594L102.642 1.50036C101.911 0.67173 100.647 0.592069 99.8187 1.32244L87.1593 12.4806Z" fill="black"/>
<rect x="48" width="4" height="19" rx="2" fill="black"/>
<rect x="119" y="62" width="4" height="19" rx="2" transform="rotate(90 119 62)" fill="black"/>
</g>
<defs>
<clipPath id="clip0_67_2">
<rect width="119" height="116" fill="white"/>
</clipPath>
</defs>
</svg>
