<svg width="30" height="30" viewBox="0 0 30 30" fill="none" xmlns="http://www.w3.org/2000/svg">
<path fill-rule="evenodd" clip-rule="evenodd" d="M11.9214 4.25764L9.30131 5.17467L6.0262 2.62009L2.62009 6.15721L5.10917 9.56332L4.06114 11.9869L0 12.5109L0.131004 17.4236L4.19214 18.0131L5.17467 20.4367L2.42358 23.4498L5.76419 27.1179L9.23581 24.8908L11.9869 25.8079L12.3799 29.869H17.6856L18.0786 25.8079L20.5022 24.5633L23.6463 27.3144L27.2489 23.9083L24.9563 20.4367L25.6769 17.8821L30 17.4891V12.5109L26.0044 11.8559L24.7598 9.36681L27.5764 6.35371L24.3013 2.68559L20.6332 5.17467L18.0131 4.12664L17.4891 0L12.6419 0.131004L11.9214 4.25764ZM15.131 19.7162C17.6633 19.7162 19.7162 17.634 19.7162 15.0655C19.7162 12.497 17.6633 10.4149 15.131 10.4149C12.5987 10.4149 10.5459 12.497 10.5459 15.0655C10.5459 17.634 12.5987 19.7162 15.131 19.7162Z" fill="#C300C3"/>
</svg>
