<svg width="159" height="171" viewBox="0 0 159 171" fill="none" xmlns="http://www.w3.org/2000/svg">
<g clip-path="url(#clip0_62_2)">
<path fill-rule="evenodd" clip-rule="evenodd" d="M32 38H15V143C15 158.464 27.536 171 43 171H118C133.464 171 146 158.464 146 143V38H129V144C129 149.523 124.523 154 119 154H42C36.4772 154 32 149.523 32 144V38Z" fill="black"/>
<rect x="48" y="55" width="10" height="83" rx="5" fill="black"/>
<rect x="76" y="55" width="10" height="83" rx="5" fill="black"/>
<rect x="104" y="55" width="10" height="83" rx="5" fill="black"/>
<rect y="23" width="159" height="18" rx="9" fill="black"/>
<path fill-rule="evenodd" clip-rule="evenodd" d="M56 0C49.3726 0 44 5.37258 44 12V40H117V12C117 5.37258 111.627 0 105 0H56ZM64.3034 12C59.8851 12 56.3034 15.5817 56.3034 20V27H103.876V19C103.876 15.134 100.742 12 96.8764 12H64.3034Z" fill="black"/>
</g>
<defs>
<clipPath id="clip0_62_2">
<rect width="159" height="171" fill="white"/>
</clipPath>
</defs>
</svg>
